<svg xmlns="http://www.w3.org/2000/svg" id="Vitest--Streamline-Svg-Logos" width="24" height="24" fill="none" viewBox="0 0 24 24"><desc>Vitest Streamline Icon: https://streamlinehq.com</desc><path fill="#fcc72b" stroke-width=".25" d="m17.885 7.781-5.618 8.123a.484.484 0 0 1-.879-.295l.225-4.485-3.63-.77a.483.483 0 0 1-.378-.523.5.5 0 0 1 .082-.219l5.618-8.123a.483.483 0 0 1 .88.296l-.226 4.484 3.63.77a.483.483 0 0 1 .379.523.5.5 0 0 1-.083.219"/><path fill="#729b1b" stroke-width=".25" d="M12.002 22.719a1.13 1.13 0 0 1-.804-.333l-5.309-5.308a1.137 1.137 0 0 1 1.609-1.61l4.504 4.505 9.813-9.812a1.137 1.137 0 0 1 1.608 1.608L12.806 22.386a1.13 1.13 0 0 1-.804.333"/><path fill="#729b1b" fill-opacity=".5" stroke-width=".25" d="M11.998 22.719a1.13 1.13 0 0 0 .804-.333l5.308-5.308a1.137 1.137 0 0 0-1.608-1.61l-4.504 4.505-9.813-9.812a1.137 1.137 0 0 0-1.608 1.608l10.616 10.617a1.13 1.13 0 0 0 .805.333"/></svg>